#!OML:ASF X:\für Bonn\!DataBase\2005_08_12_Daniel\c3d\Daniel.ASF
:FULLY-SPECIFIED
:DEGREES
1
root -22.3194 15.6997 -0.0686119 -25.6472 81.5157 -386.418
lowerback 39.6136 -1.5571 3.19975
upperback 7.30885 -0.00796646 -2.14421
thorax -11.1457 0.31191 -4.06289
lowerneck 1.74018 2.22712 -5.96041
upperneck -0.720282 2.83811 -1.13368
head -0.577092 1.45277 0.605734
rclavicle 1.98785e-015 -1.51076e-014
rhumerus -26.4992 -10.5593 -87.6454
rradius 17.2448
rwrist 22.5132
rhand -16.9152 7.80908
rfingers 7.12502
rthumb 9.31721 -21.965
lclavicle 1.98785e-015 -1.51076e-014
lhumerus -27.5733 26.3622 73.7255
lradius 16.5665
lwrist -46.5493
lhand -12.7247 -3.50338
lfingers 7.12502
lthumb 13.3586 26.0484
rfemur -42.1646 -3.15477 27.2098
rtibia 68.4284
rfoot -23.6088 4.56966
rtoes -8.32646
lfemur -49.093 3.43098 -13.9764
ltibia 73.2313
lfoot -23.6283 -4.6479
ltoes -11.9984
2
root -22.1793 15.7851 -0.0700997 -25.6284 81.554 -386.966
lowerback 39.3726 -1.58267 3.21341
upperback 7.52213 -0.0269478 -2.15033
thorax -10.8244 0.319163 -4.06353
lowerneck 1.74313 2.15505 -5.83907
upperneck -0.435853 2.75256 -1.56326
head -0.477821 1.40698 0.454465
rclavicle -2.94201e-014 3.49861e-014
rhumerus -29.0463 -7.99387 -87.5659
rradius 17.8283
rwrist 22.9194
rhand -16.3552 8.98129
rfingers 7.12502
rthumb 9.8575 -20.768
lclavicle -2.94201e-014 3.49861e-014
lhumerus -29.9274 25.8042 71.9636
lradius 16.0589
lwrist -49.1905
lhand -11.2989 -5.03954
lfingers 7.12502
lthumb 14.7325 24.4169
rfemur -41.9499 -3.25118 27.1881
rtibia 68.0214
rfoot -23.2812 4.5128
rtoes -8.87873
lfemur -48.7577 3.31339 -13.9855
ltibia 72.6301
lfoot -23.7032 -4.55937
ltoes -11.6947
3
root -22.0396 15.8827 -0.0685275 -25.5756 81.6272 -387.474
lowerback 39.0898 -1.59392 3.21558
upperback 7.7168 -0.0377889 -2.1632
thorax -10.5101 0.328639 -4.06916
lowerneck 1.90046 2.09302 -5.73995
upperneck -0.164286 2.67054 -1.89547
head -0.411264 1.36302 0.336143
rclavicle -2.50469e-014 -7.95139e-015
rhumerus -31.6446 -6.0921 -87.4664
rradius 18.2447
rwrist 23.9135
rhand -16.259 10.0717
rfingers 7.12502
rthumb 9.95029 -19.6731
lclavicle -2.50469e-014 -7.95139e-015
lhumerus -32.3724 25.129 70.2894
lradius 15.6566
lwrist -51.8122
lhand -10.3478 -6.5164
lfingers 7.12502
lthumb 15.6487 22.8707
rfemur -41.7529 -3.32695 27.1401
rtibia 67.597
rfoot -22.7174 4.40132
rtoes -9.34757
lfemur -48.3524 3.24169 -14.0365
ltibia 71.8828
lfoot -23.6312 -4.48413
ltoes -11.4496
4
root -21.8996 15.9872 -0.0640682 -25.7241 81.7547 -388.19
lowerback 38.7261 -1.62788 3.23023
upperback 7.90917 -0.0746765 -2.16124
thorax -10.1733 0.325206 -4.05429
lowerneck 2.17125 2.09366 -5.84535
upperneck 0.085648 2.65905 -1.95329
head -0.379611 1.35343 0.334335
rclavicle -2.34566e-014 -2.38542e-014
rhumerus -34.0161 -5.059 -87.1476
rradius 18.1664
rwrist 25.6137
rhand -16.494 11.157
rfingers 7.12502
rthumb 9.72361 -18.5985
lclavicle -2.34566e-014 -2.38542e-014
lhumerus -34.7909 23.3578 69.3029
lradius 15.5914
lwrist -52.8762
lhand -9.76458 -7.50231
lfingers 7.12502
lthumb 16.2103 21.8399
rfemur -41.5886 -3.42653 27.0976
rtibia 67.1632
rfoot -21.9341 4.29023
rtoes -9.7228
lfemur -47.9197 3.15864 -14.0803
ltibia 71.0452
lfoot -23.5218 -4.47578
ltoes -11.1911
5
root -21.7593 16.0996 -0.0574162 -26.0182 81.8995 -389.014
lowerback 38.3503 -1.65452 3.21406
upperback 8.08175 -0.113745 -2.13121
thorax -9.85416 0.319139 -3.99279
lowerneck 2.48783 2.09784 -5.95966
upperneck 0.359788 2.64964 -1.99179
head -0.348522 1.34442 0.339582
rclavicle -3.97569e-015 -3.18055e-015
rhumerus -36.2702 -4.67471 -86.5819
rradius 17.6906
rwrist 27.6848
rhand -16.9716 12.1069
rfingers 7.12502
rthumb 9.2627 -17.6697
lclavicle -3.97569e-015 -3.18055e-015
lhumerus -37.1481 20.7218 69.0624
lradius 15.7732
lwrist -52.338
lhand -9.34741 -7.89273
lfingers 7.12502
lthumb 16.612 21.4163
rfemur -41.4152 -3.52758 27.0479
rtibia 66.7075
rfoot -20.8715 4.16774
rtoes -9.84743
lfemur -47.4059 3.07584 -14.1067
ltibia 70.1162
lfoot -23.2814 -4.50161
ltoes -10.8227
6
root -21.6193 16.2118 -0.0482484 -26.4583 82.0746 -389.964
lowerback 37.9476 -1.69057 3.18397
upperback 8.25545 -0.170197 -2.09545
thorax -9.52551 0.304932 -3.91132
lowerneck 2.69116 2.11779 -6.053
upperneck 0.740152 2.67427 -2.02438
head -0.266465 1.34854 0.344346
rclavicle -1.66979e-014 -1.51076e-014
rhumerus -38.4102 -4.72233 -85.8175
rradius 16.9404
rwrist 29.9635
rhand -17.4796 12.8824
rfingers 7.12502
rthumb 8.77253 -16.9153
lclavicle -1.66979e-014 -1.51076e-014
lhumerus -39.5122 18.4861 68.8755
lradius 15.99
lwrist -51.5425
lhand -8.98641 -7.94496
lfingers 7.12502
lthumb 16.9595 21.3346
rfemur -41.2468 -3.61185 26.9858
rtibia 66.2414
rfoot -19.581 4.03635
rtoes -9.70324
lfemur -46.882 2.99628 -14.1345
ltibia 69.1506
lfoot -22.9416 -4.53598
ltoes -10.5565
7
root -21.4803 16.3301 -0.0370524 -27.2924 82.2722 -391.243
lowerback 37.5324 -1.73554 3.19986
upperback 8.482 -0.214727 -2.06429
thorax -9.13221 0.300191 -3.86394
lowerneck 2.59899 2.11014 -6.12634
upperneck 1.34125 2.69358 -1.97937
head -0.0693575 1.34112 0.374064
rclavicle 1.19271e-015 1.27222e-014
rhumerus -40.7599 -4.66489 -85.1485
rradius 16.6085
rwrist 31.6448
rhand -17.7979 13.3323
rfingers 7.12502
rthumb 8.4654 -16.478
lclavicle 1.19271e-015 1.27222e-014
lhumerus -41.7896 17.2723 68.2581
lradius 16.0041
lwrist -51.2043
lhand -8.81067 -7.94683
lfingers 7.12502
lthumb 17.1287 21.3181
rfemur -41.0039 -3.68569 26.9423
rtibia 65.7232
rfoot -18.183 3.84972
rtoes -9.69652
lfemur -46.2667 2.87989 -14.1144
ltibia 68.1264
lfoot -22.523 -4.6348
ltoes -10.194
8
root -21.3425 16.4547 -0.0239546 -28.0496 82.4786 -392.432
lowerback 37.0819 -1.77615 3.14625
upperback 8.71324 -0.279321 -2.01372
thorax -8.72218 0.286226 -3.75204
lowerneck 2.17906 2.12364 -6.20741
upperneck 2.24875 2.77911 -1.93362
head 0.272796 1.35596 0.411664
rclavicle -6.36111e-015 -3.18055e-015
rhumerus -42.9982 -4.89023 -84.2532
rradius 16.1072
rwrist 33.5312
rhand -18.0844 13.6453
rfingers 7.12502
rthumb 8.18893 -16.176
lclavicle -6.36111e-015 -3.18055e-015
lhumerus -44.1213 17.2035 66.9775
lradius 15.7682
lwrist -51.5632
lhand -8.77044 -8.1248
lfingers 7.12502
lthumb 17.1674 21.1368
rfemur -40.7418 -3.70897 26.8753
rtibia 65.1564
rfoot -16.7558 3.62233
rtoes -9.44246
lfemur -45.6284 2.83636 -14.1208
ltibia 67.0605
lfoot -22.012 -4.79779
ltoes -9.97095
